<svg xmlns="http://www.w3.org/2000/svg" role="img" width="1000mm" height="1000mm" viewBox="0 0 1000 1000" style="max-width:1.6em; height: auto;" transform="matrix(-1, 0, 0, 1, 0, 0)">
    
    <path id="path" style="opacity:1;vector-effect:none;fill:#000000;fill-opacity:1;" d=" M 812 400C 812 517 717 613 600 613C 545 613 496 592 458 558C 458 558 459 559 459 559C 459 559 234 784 234 784C 234 784 216 766 216 766C 216 766 441 541 441 541C 441 541 442 542 442 542C 408 504 387 455 387 400C 387 283 483 188 600 188C 717 188 812 283 812 400C 812 400 812 400 812 400M 412 400C 412 504 496 588 600 588C 704 588 788 504 788 400C 788 296 704 213 600 213C 496 213 412 296 412 400C 412 400 412 400 412 400" transform="translate(1000,0) scale(-1,1)">
    </path>    
</svg>